<svg width="131" height="22" viewBox="0 0 131 22" fill="none" xmlns="http://www.w3.org/2000/svg">
    <path
        d="M14.7359 15.984C14.7839 16.048 14.8079 16.136 14.8079 16.248C14.8079 16.408 14.7519 16.544 14.6399 16.656C14.5439 16.752 14.4239 16.8 14.2799 16.8H10.4879C10.1039 16.8 9.82392 16.64 9.64792 16.32L6.07192 10.32H4.51192V16.2C4.51192 16.376 4.44792 16.52 4.31992 16.632C4.20792 16.744 4.06392 16.8 3.88792 16.8H0.59992C0.42392 16.8 0.27992 16.744 0.16792 16.632C0.05592 16.52 -7.99894e-05 16.376 -7.99894e-05 16.2V0.623987C-7.99894e-05 0.447987 0.05592 0.303987 0.16792 0.191987C0.27992 0.0639868 0.42392 -1.33514e-05 0.59992 -1.33514e-05H3.88792C4.06392 -1.33514e-05 4.20792 0.0639868 4.31992 0.191987C4.44792 0.303987 4.51192 0.447987 4.51192 0.623987V6.31199H5.85592L9.31192 0.479988C9.51992 0.159987 9.82392 -1.33514e-05 10.2239 -1.33514e-05H13.8959C14.0399 -1.33514e-05 14.1599 0.047987 14.2559 0.143988C14.3519 0.239987 14.3999 0.359987 14.3999 0.503987C14.3999 0.615987 14.3679 0.711987 14.3039 0.791986L9.86392 8.08799L14.7359 15.984ZM27.5334 4.31999C27.6774 4.31999 27.7974 4.37599 27.8934 4.48799C28.0054 4.58399 28.0614 4.69599 28.0614 4.82399C28.0614 4.93599 28.0374 5.03999 27.9894 5.13599L23.4294 16.152C22.9174 17.368 22.4294 18.336 21.9654 19.056C21.5014 19.792 20.9494 20.36 20.3094 20.76C19.6854 21.176 18.9094 21.384 17.9814 21.384H16.7814C16.6054 21.384 16.4534 21.32 16.3254 21.192C16.2134 21.08 16.1574 20.936 16.1574 20.76V18.72C16.1574 18.544 16.2134 18.4 16.3254 18.288C16.4534 18.176 16.6054 18.12 16.7814 18.12H17.6214C18.0374 18.12 18.3574 18 18.5814 17.76C18.8054 17.536 19.0534 17.096 19.3254 16.44L19.4214 16.224L14.6454 5.13599C14.5974 5.00799 14.5734 4.91999 14.5734 4.87199C14.6054 4.71199 14.6694 4.58399 14.7654 4.48799C14.8774 4.37599 15.0054 4.31999 15.1494 4.31999H18.0054C18.3414 4.31999 18.5734 4.48799 18.7014 4.82399L21.3174 11.568L24.0774 4.82399C24.2054 4.48799 24.4534 4.31999 24.8214 4.31999H27.5334ZM30.4537 21.36C30.2777 21.36 30.1257 21.304 29.9977 21.192C29.8857 21.08 29.8297 20.936 29.8297 20.76V4.91999C29.8297 4.74399 29.8857 4.59999 29.9977 4.48799C30.1257 4.37599 30.2777 4.31999 30.4537 4.31999H33.3097C33.4857 4.31999 33.6297 4.37599 33.7417 4.48799C33.8537 4.59999 33.9097 4.74399 33.9097 4.91999V5.78399C34.7737 4.64799 36.0137 4.07999 37.6297 4.07999C39.1817 4.07999 40.3977 4.56799 41.2777 5.54399C42.1737 6.50399 42.6537 7.87999 42.7177 9.67199C42.7337 9.87999 42.7417 10.176 42.7417 10.56C42.7417 10.944 42.7337 11.248 42.7177 11.472C42.6537 13.2 42.1737 14.56 41.2777 15.552C40.3817 16.544 39.1657 17.04 37.6297 17.04C36.0777 17.04 34.9177 16.512 34.1497 15.456V20.76C34.1497 20.936 34.0937 21.08 33.9817 21.192C33.8697 21.304 33.7257 21.36 33.5497 21.36H30.4537ZM36.2377 13.704C36.9577 13.704 37.4697 13.496 37.7737 13.08C38.0937 12.648 38.2777 12.056 38.3257 11.304C38.3417 11.144 38.3497 10.896 38.3497 10.56C38.3497 10.224 38.3417 9.97599 38.3257 9.81599C38.2777 9.06399 38.0937 8.47999 37.7737 8.06399C37.4697 7.63199 36.9577 7.41599 36.2377 7.41599C35.5497 7.41599 35.0377 7.63999 34.7017 8.08799C34.3657 8.51999 34.1817 9.07199 34.1497 9.74399C34.1337 9.95199 34.1257 10.256 34.1257 10.656C34.1257 11.04 34.1337 11.336 34.1497 11.544C34.1817 12.168 34.3657 12.688 34.7017 13.104C35.0537 13.504 35.5657 13.704 36.2377 13.704ZM50.8486 17.04C49.0246 17.04 47.5446 16.56 46.4086 15.6C45.2886 14.624 44.6886 13.272 44.6086 11.544L44.5846 10.584L44.6086 9.59999C44.6726 7.87199 45.2726 6.51999 46.4086 5.54399C47.5446 4.56799 49.0246 4.07999 50.8486 4.07999C52.2406 4.07999 53.4086 4.32799 54.3526 4.82399C55.2966 5.31999 56.0006 5.91199 56.4646 6.59999C56.9286 7.27199 57.1766 7.88799 57.2086 8.44799C57.2246 8.62399 57.1686 8.77599 57.0406 8.90399C56.9126 9.01599 56.7606 9.07199 56.5846 9.07199H53.3686C53.1926 9.07199 53.0566 9.03199 52.9606 8.95199C52.8646 8.87199 52.7766 8.74399 52.6966 8.56799C52.5206 8.11999 52.2886 7.79199 52.0006 7.58399C51.7286 7.37599 51.3766 7.27199 50.9446 7.27199C49.7126 7.27199 49.0726 8.08799 49.0246 9.71999L49.0006 10.632L49.0246 11.424C49.0406 12.256 49.2086 12.872 49.5286 13.272C49.8486 13.656 50.3206 13.848 50.9446 13.848C51.4086 13.848 51.7686 13.752 52.0246 13.56C52.2966 13.352 52.5206 13.016 52.6966 12.552C52.7766 12.376 52.8646 12.248 52.9606 12.168C53.0566 12.088 53.1926 12.048 53.3686 12.048H56.5846C56.7446 12.048 56.8886 12.104 57.0166 12.216C57.1446 12.328 57.2086 12.464 57.2086 12.624C57.2086 13.12 56.9846 13.72 56.5366 14.424C56.1046 15.112 55.4086 15.72 54.4486 16.248C53.4886 16.776 52.2886 17.04 50.8486 17.04ZM65.1232 17.04C63.1712 17.04 61.6352 16.52 60.5152 15.48C59.3952 14.424 58.8192 12.896 58.7872 10.896V10.152C58.8512 8.24799 59.4432 6.75999 60.5632 5.68799C61.6832 4.61599 63.1952 4.07999 65.0992 4.07999C66.4752 4.07999 67.6352 4.35999 68.5792 4.91999C69.5392 5.46399 70.2512 6.22399 70.7152 7.19999C71.1952 8.15999 71.4352 9.25599 71.4352 10.488V11.088C71.4352 11.264 71.3712 11.416 71.2432 11.544C71.1312 11.656 70.9872 11.712 70.8112 11.712H63.2032V11.856C63.2192 12.576 63.3872 13.16 63.7072 13.608C64.0272 14.04 64.4832 14.256 65.0752 14.256C65.4592 14.256 65.7632 14.184 65.9872 14.04C66.2272 13.88 66.4512 13.68 66.6592 13.44C66.8032 13.28 66.9152 13.184 66.9952 13.152C67.0912 13.104 67.2352 13.08 67.4272 13.08H70.5712C70.7152 13.08 70.8352 13.128 70.9312 13.224C71.0432 13.304 71.0992 13.408 71.0992 13.536C71.0992 13.952 70.8592 14.44 70.3792 15C69.9152 15.56 69.2272 16.04 68.3152 16.44C67.4192 16.84 66.3552 17.04 65.1232 17.04ZM67.0192 9.26399V9.21599C67.0192 8.44799 66.8512 7.85599 66.5152 7.43999C66.1792 7.00799 65.7072 6.79199 65.0992 6.79199C64.4912 6.79199 64.0192 7.00799 63.6832 7.43999C63.3632 7.85599 63.2032 8.44799 63.2032 9.21599V9.26399H67.0192ZM79.3955 17.04C77.5715 17.04 76.0915 16.56 74.9555 15.6C73.8355 14.624 73.2355 13.272 73.1555 11.544L73.1315 10.584L73.1555 9.59999C73.2195 7.87199 73.8195 6.51999 74.9555 5.54399C76.0915 4.56799 77.5715 4.07999 79.3955 4.07999C80.7875 4.07999 81.9555 4.32799 82.8995 4.82399C83.8435 5.31999 84.5475 5.91199 85.0115 6.59999C85.4755 7.27199 85.7235 7.88799 85.7555 8.44799C85.7715 8.62399 85.7155 8.77599 85.5875 8.90399C85.4595 9.01599 85.3075 9.07199 85.1315 9.07199H81.9155C81.7395 9.07199 81.6035 9.03199 81.5075 8.95199C81.4115 8.87199 81.3235 8.74399 81.2435 8.56799C81.0675 8.11999 80.8355 7.79199 80.5475 7.58399C80.2755 7.37599 79.9235 7.27199 79.4915 7.27199C78.2595 7.27199 77.6195 8.08799 77.5715 9.71999L77.5475 10.632L77.5715 11.424C77.5875 12.256 77.7555 12.872 78.0755 13.272C78.3955 13.656 78.8675 13.848 79.4915 13.848C79.9555 13.848 80.3155 13.752 80.5715 13.56C80.8435 13.352 81.0675 13.016 81.2435 12.552C81.3235 12.376 81.4115 12.248 81.5075 12.168C81.6035 12.088 81.7395 12.048 81.9155 12.048H85.1315C85.2915 12.048 85.4355 12.104 85.5635 12.216C85.6915 12.328 85.7555 12.464 85.7555 12.624C85.7555 13.12 85.5315 13.72 85.0835 14.424C84.6515 15.112 83.9555 15.72 82.9955 16.248C82.0355 16.776 80.8355 17.04 79.3955 17.04ZM92.398 16.8C92.222 16.8 92.07 16.744 91.942 16.632C91.83 16.52 91.774 16.376 91.774 16.2V3.91199H87.55C87.374 3.91199 87.222 3.85599 87.094 3.74399C86.982 3.63199 86.926 3.48799 86.926 3.31199V0.623987C86.926 0.447987 86.982 0.303987 87.094 0.191987C87.222 0.0639868 87.374 -1.33514e-05 87.55 -1.33514e-05H100.582C100.758 -1.33514e-05 100.902 0.0639868 101.014 0.191987C101.142 0.303987 101.206 0.447987 101.206 0.623987V3.31199C101.206 3.48799 101.142 3.63199 101.014 3.74399C100.902 3.85599 100.758 3.91199 100.582 3.91199H96.358V16.2C96.358 16.376 96.294 16.52 96.166 16.632C96.054 16.744 95.91 16.8 95.734 16.8H92.398ZM109.048 17.04C107.032 17.04 105.48 16.576 104.392 15.648C103.32 14.704 102.736 13.368 102.64 11.64C102.624 11.432 102.616 11.072 102.616 10.56C102.616 10.048 102.624 9.68799 102.64 9.47999C102.736 7.78399 103.336 6.46399 104.44 5.51999C105.56 4.55999 107.096 4.07999 109.048 4.07999C111 4.07999 112.528 4.55999 113.632 5.51999C114.752 6.46399 115.36 7.78399 115.456 9.47999C115.488 9.89599 115.504 10.256 115.504 10.56C115.504 10.864 115.488 11.224 115.456 11.64C115.36 13.368 114.768 14.704 113.68 15.648C112.608 16.576 111.064 17.04 109.048 17.04ZM109.048 14.016C109.704 14.016 110.192 13.816 110.512 13.416C110.832 13 111.016 12.368 111.064 11.52C111.08 11.36 111.088 11.04 111.088 10.56C111.088 10.08 111.08 9.75999 111.064 9.59999C111.016 8.76799 110.832 8.14399 110.512 7.72799C110.192 7.31199 109.704 7.10399 109.048 7.10399C108.392 7.10399 107.904 7.31199 107.584 7.72799C107.264 8.14399 107.08 8.76799 107.032 9.59999L107.008 10.56L107.032 11.52C107.08 12.368 107.264 13 107.584 13.416C107.904 13.816 108.392 14.016 109.048 14.016ZM118.391 16.8C118.231 16.8 118.087 16.744 117.959 16.632C117.847 16.504 117.791 16.36 117.791 16.2V4.91999C117.791 4.74399 117.847 4.59999 117.959 4.48799C118.087 4.37599 118.231 4.31999 118.391 4.31999H129.551C129.727 4.31999 129.871 4.37599 129.983 4.48799C130.095 4.59999 130.151 4.74399 130.151 4.91999V16.2C130.151 16.36 130.095 16.504 129.983 16.632C129.871 16.744 129.727 16.8 129.551 16.8H126.551C126.391 16.8 126.247 16.744 126.119 16.632C126.007 16.504 125.951 16.36 125.951 16.2V7.58399H122.015V16.2C122.015 16.376 121.951 16.52 121.823 16.632C121.711 16.744 121.567 16.8 121.391 16.8H118.391Z"
        fill="#AFB2BF" />
</svg>