<svg width="114" height="29" viewBox="0 0 114 29" fill="none" xmlns="http://www.w3.org/2000/svg">
    <path
        d="M96.5139 21.2098C95.9389 21.2098 95.4502 20.7265 95.4502 20.1579V7.22158C95.4502 6.65295 95.9102 6.16962 96.5139 6.16962C97.0889 6.16962 97.5777 6.62452 97.5777 7.22158V20.1579C97.5777 20.7265 97.0889 21.2098 96.5139 21.2098Z"
        fill="#AFB2BF" />
    <path
        d="M60.3176 18.2245C59.8864 17.8833 59.2826 17.9402 58.9089 18.3666C57.9601 19.5323 55.6026 19.248 54.9989 18.9921C54.1076 18.651 53.6764 17.9117 53.6764 16.8314V9.75194H58.3626C58.9376 9.75194 59.4264 9.29704 59.4264 8.69998C59.4264 8.13135 58.9664 7.64802 58.3626 7.64802H53.6764V2.35978C53.6764 1.81959 53.2451 1.36469 52.6701 1.36469C52.1239 1.36469 51.6926 1.79116 51.6926 2.35978V16.8314C51.6926 18.7078 52.6126 20.1578 54.2514 20.8117C54.7689 21.0108 55.5739 21.1813 56.4651 21.1813C57.8739 21.1813 59.4839 20.7833 60.4614 19.5892C60.8064 19.1627 60.7489 18.5657 60.3176 18.2245Z"
        fill="#AFB2BF" />
    <path
        d="M44.0451 21.2667C43.7289 21.2667 43.3839 21.2382 43.0676 21.2098C39.6176 20.7833 37.5476 19.1912 37.5476 17.002C37.5476 16.4333 38.0076 15.95 38.6114 15.95C39.1864 15.95 39.6751 16.4333 39.6751 17.002C39.6751 18.0255 41.1126 18.85 43.3551 19.1343C45.5976 19.4186 47.1789 18.3098 47.4089 17.4569C47.5526 16.9451 47.4951 16.4902 47.2651 16.1206C47.0064 15.7226 46.5751 15.4667 45.9139 15.3245C41.4001 14.5284 38.4101 13.7892 37.9789 10.9745C37.8351 9.95099 38.1226 8.92746 38.8126 8.13139C39.7901 6.99413 41.4864 6.34021 43.4701 6.34021C47.0926 6.34021 49.4501 7.93237 49.4501 10.4343C49.4501 11.003 48.9614 11.4863 48.3864 11.4863C47.8114 11.4863 47.3226 11.003 47.3226 10.4343C47.3226 8.9559 45.2526 8.44413 43.4701 8.44413C42.1476 8.44413 40.9976 8.84217 40.4226 9.49609C40.1351 9.83727 39.9914 10.2353 40.0776 10.6618C40.2501 11.7137 41.1989 12.3677 46.3164 13.249H46.3451C47.8976 13.5618 48.7026 14.3863 49.0764 14.9833C49.6226 15.8363 49.7664 16.8882 49.4789 17.9686C48.9614 19.703 46.8914 21.2667 44.0451 21.2667Z"
        fill="#AFB2BF" />
    <path
        d="M68.425 21.2667C64.2563 21.2667 60.8638 17.9118 60.8638 13.8177C60.8638 9.69512 64.2563 6.36865 68.425 6.36865C72.22 6.36865 75.4688 9.18336 75.9288 12.9079C75.9863 13.3912 75.7275 13.7892 75.555 13.9883C75.2963 14.2726 74.9513 14.4432 74.6063 14.4432H63.02C63.3075 17.1157 65.6363 19.2196 68.425 19.2196C70.2938 19.2196 72.1913 18.253 72.9963 16.9167C73.2838 16.4049 73.945 16.2628 74.4338 16.5471C74.9225 16.8314 75.1238 17.4853 74.8075 17.9687C73.6575 19.902 71.07 21.2667 68.425 21.2667ZM63.1925 12.3108H73.6575C72.9963 10.0647 70.8688 8.44414 68.425 8.44414C65.9525 8.44414 63.8538 10.0647 63.1925 12.3108Z"
        fill="#AFB2BF" />
    <path
        d="M85.4738 6.3402C83.3463 6.3402 81.4201 7.22157 80.0401 8.61471V7.36373C80.0401 6.7951 79.5513 6.31177 78.9763 6.31177C78.4013 6.31177 77.9126 6.76667 77.9126 7.36373V25.3039C77.9126 25.8726 78.3726 26.3559 78.9763 26.3559C79.5513 26.3559 80.0401 25.8726 80.0401 25.3039V18.9637C81.4201 20.3853 83.3463 21.2382 85.4738 21.2382C89.6426 21.2382 93.0063 17.8833 93.0063 13.7892C93.0063 9.6951 89.6426 6.3402 85.4738 6.3402ZM85.4738 19.1627C82.4838 19.1627 80.0401 16.7461 80.0401 13.7892C80.0401 10.8324 82.4838 8.41569 85.4738 8.41569C88.4638 8.41569 90.9076 10.8324 90.9076 13.7892C90.9076 16.7461 88.4638 19.1627 85.4738 19.1627Z"
        fill="#AFB2BF" />
    <path
        d="M111.607 21.153C110.572 21.153 109.537 20.6981 108.589 19.8167C107.87 19.1343 103.27 14.5569 103.098 14.3579C102.896 14.1588 102.781 13.903 102.781 13.6186C102.781 13.3343 102.896 13.0785 103.098 12.8794L109.423 6.76669C109.854 6.36865 110.515 6.36865 110.917 6.79512C111.32 7.19316 111.32 7.87551 110.889 8.27355L105.34 13.6186C106.691 14.9834 109.509 17.7696 110.026 18.2814C110.601 18.8216 111.147 19.0775 111.665 19.049C111.809 19.049 112.154 19.049 112.441 19.049C113.016 19.049 113.505 19.5324 113.505 20.101C113.505 20.6696 113.016 21.1245 112.441 21.153C112.154 21.153 111.866 21.153 111.723 21.153C111.694 21.153 111.636 21.153 111.607 21.153Z"
        fill="#AFB2BF" />
    <path
        d="M101.373 21.1814C100.798 21.1814 100.309 20.7265 100.309 20.1294V2.33138C100.309 1.76275 100.798 1.27942 101.373 1.27942C101.948 1.27942 102.436 1.73432 102.436 2.33138V20.1294C102.436 20.7265 101.948 21.1814 101.373 21.1814Z"
        fill="#AFB2BF" />
    <path
        d="M96.5427 4.03723C97.2902 4.03723 97.8939 3.44018 97.8939 2.70096C97.8939 1.96174 97.2902 1.36469 96.5427 1.36469C95.7952 1.36469 95.1914 1.96174 95.1914 2.70096C95.1914 3.44018 95.7952 4.03723 96.5427 4.03723Z"
        fill="#AFB2BF" />
    <path
        d="M25.9325 7.47745L21.2175 2.78627C19.3775 0.995098 16.9625 0 14.375 0C11.7875 0 9.3725 0.995098 7.56125 2.78627L2.84625 7.47745C1.00625 9.26863 0 11.6569 0 14.2157C0 16.7745 1.00625 19.1627 2.8175 20.9539L7.5325 25.6167C9.34375 27.4078 11.7875 28.4029 14.3463 28.4029C16.8475 28.4029 19.2338 27.4647 21.045 25.7304L25.875 20.9539C27.6863 19.1627 28.6925 16.7461 28.6925 14.2157C28.75 11.6569 27.7725 9.26863 25.9325 7.47745Z"
        fill="#AFB2BF" />
    <path
        d="M17.8537 22.4324C16.9625 23.2853 15.7262 23.8255 14.4037 23.8255C13.0237 23.8255 11.7875 23.2853 10.8675 22.3755L13.1962 20.0726C13.5125 20.3853 13.915 20.5559 14.4037 20.5559C14.8637 20.5559 15.295 20.3569 15.6112 20.0726L20.3262 15.4098C20.6425 15.0971 20.815 14.699 20.815 14.2157C20.815 13.7608 20.6137 13.3343 20.3262 13.0216C20.01 12.7088 19.6075 12.5382 19.1187 12.5382C18.63 12.5382 18.2275 12.7373 17.9112 13.0216L13.1962 17.7128C12.305 18.5941 11.04 19.1628 9.65997 19.1628C8.27997 19.1628 7.04372 18.5941 6.12372 17.7128C5.23247 16.8314 4.65747 15.5804 4.65747 14.2157C4.65747 12.851 5.20372 11.6284 6.12372 10.7186L10.8387 6.0559C11.73 5.17452 12.995 4.6059 14.375 4.6059C15.755 4.6059 16.9912 5.14609 17.9112 6.0559L15.5825 8.35884C15.2662 8.04609 14.8637 7.8755 14.375 7.8755C13.8862 7.8755 13.4837 8.07452 13.1675 8.35884L8.45247 13.0216C8.13622 13.3343 7.96372 13.7324 7.96372 14.2157C7.96372 14.6706 8.16497 15.0971 8.45247 15.4098C8.76872 15.7226 9.17122 15.8932 9.65997 15.8932C10.12 15.8932 10.5512 15.6941 10.8675 15.4098L15.5825 10.7471C16.4737 9.8657 17.7387 9.29707 19.1187 9.29707C20.4987 9.29707 21.735 9.83727 22.655 10.7471C23.5462 11.6284 24.1212 12.8794 24.1212 14.2441C24.1212 15.6088 23.575 16.8314 22.655 17.7412L17.8537 22.4324Z"
        fill="#1E1F29" />
</svg>